<svg width="70" height="65" viewBox="0 0 70 65" fill="none" xmlns="http://www.w3.org/2000/svg">
<path d="M49.7323 2.70416C40.336 -1.49679 31.946 3.80102 28.8051 6.36525C28.5395 6.5615 28.3101 6.80585 28.0844 7.04629C28.0467 7.08645 28.0092 7.12649 27.9715 7.16618C27.6948 7.45796 27.3675 7.78695 26.8791 8.15665C25.8999 8.89801 24.2358 9.83109 21.0042 10.8881C17.5985 12.0021 14.0308 15.2486 10.8997 18.9789C7.75229 22.7286 4.98014 27.0478 3.1782 30.4209C1.33925 33.8633 0.456586 38.5726 0.72132 42.9593C0.985064 47.3296 2.39843 51.5144 5.30163 53.7808C10.8176 58.0868 20.5876 63.729 31.5727 64.1381C32.5359 64.174 33.9704 63.9136 35.5602 63.5177C37.1667 63.1176 38.9861 62.5647 40.7446 61.9843C44.2566 60.8252 47.563 59.5438 48.49 59.1255C50.8977 58.0391 56.5745 55.0032 61.3713 50.4258C66.1607 45.8555 70.164 39.6559 68.9802 32.2695C66.6751 17.8867 60.8066 7.65537 49.7323 2.70416Z" stroke="black"/>
</svg>
