<svg width="12" height="10" viewBox="0 0 12 10" fill="none" xmlns="http://www.w3.org/2000/svg">
<path d="M2.25 0.5C1.65326 0.5 1.08097 0.737053 0.65901 1.15901C0.237053 1.58097 0 2.15326 0 2.75V7.25C0 7.84674 0.237053 8.41903 0.65901 8.84099C1.08097 9.26295 1.65326 9.5 2.25 9.5H9.75C10.3467 9.5 10.919 9.26295 11.341 8.84099C11.7629 8.41903 12 7.84674 12 7.25V2.75C12 2.15326 11.7629 1.58097 11.341 1.15901C10.919 0.737053 10.3467 0.5 9.75 0.5H2.25ZM1.5 2.75C1.5 2.55109 1.57902 2.36032 1.71967 2.21967C1.86032 2.07902 2.05109 2 2.25 2H9.75C9.94891 2 10.1397 2.07902 10.2803 2.21967C10.421 2.36032 10.5 2.55109 10.5 2.75V3.005L6 4.934L1.5 3.005V2.75ZM1.5 4.637L5.7045 6.4385C5.79787 6.47853 5.89841 6.49917 6 6.49917C6.10159 6.49917 6.20213 6.47853 6.2955 6.4385L10.5 4.637V7.25C10.5 7.44891 10.421 7.63968 10.2803 7.78033C10.1397 7.92098 9.94891 8 9.75 8H2.25C2.05109 8 1.86032 7.92098 1.71967 7.78033C1.57902 7.63968 1.5 7.44891 1.5 7.25V4.637Z" fill="#333333"/>
</svg>
