<svg width="112" height="37" viewBox="0 0 112 37" fill="none" xmlns="http://www.w3.org/2000/svg">
<path d="M2.71875 27.7031C1.19792 26.1615 0.4375 24.1979 0.4375 21.8125C0.4375 21.125 0.5 20.3958 0.625 19.625C1.19792 16.2292 2.89583 13.1198 5.71875 10.2969C8.53125 7.48438 11.6354 5.78646 15.0312 5.20312C15.8021 5.06771 16.5365 5 17.2344 5C19.6198 5 21.5833 5.77083 23.125 7.3125C24.6562 8.85417 25.4219 10.8177 25.4219 13.2031C25.4219 13.901 25.3594 14.6354 25.2344 15.4062C24.651 18.8021 22.9531 21.9062 20.1406 24.7188C17.3073 27.5312 14.1927 29.224 10.7969 29.7969C10.026 29.9219 9.29167 29.9844 8.59375 29.9844C6.21875 29.9844 4.26042 29.224 2.71875 27.7031ZM6.71875 28.2344C7.60417 28.7448 8.61979 28.9896 9.76562 28.9688C10.974 28.9479 12.224 28.6094 13.5156 27.9531C14.8698 27.2969 16.1406 26.349 17.3281 25.1094C18.526 23.901 19.5469 22.4896 20.3906 20.875C21.2031 19.3125 21.7656 17.6979 22.0781 16.0312C22.3594 14.4167 22.3698 12.9062 22.1094 11.5C21.901 10.3958 21.5417 9.4375 21.0312 8.625C20.5208 7.85417 19.9115 7.25 19.2031 6.8125C18.474 6.38542 17.6562 6.13542 16.75 6.0625C15.7812 6 14.7812 6.13542 13.75 6.46875C12.6562 6.82292 11.5729 7.39062 10.5 8.17188C9.42708 8.93229 8.42188 9.89062 7.48438 11.0469C6.55729 12.1719 5.77604 13.4062 5.14062 14.75C4.51562 16.0729 4.07292 17.4219 3.8125 18.7969C3.55208 20.1302 3.47917 21.4115 3.59375 22.6406C3.70833 23.8073 4 24.849 4.46875 25.7656C4.88542 26.6302 5.44271 27.3229 6.14062 27.8438C6.34896 28.0104 6.54167 28.1406 6.71875 28.2344ZM31.75 28.25C32.2188 28.5312 32.7865 28.6979 33.4531 28.75C34.1198 28.7917 34.8385 28.6771 35.6094 28.4062C36.401 28.1354 37.1979 27.7083 38 27.125C38.8125 26.5 39.5573 25.7708 40.2344 24.9375C40.9219 24.0625 41.4844 23.1302 41.9219 22.1406C42.3906 21.1198 42.7083 20.1094 42.875 19.1094C43.0417 18.099 43.0729 17.1615 42.9688 16.2969C42.8542 15.4531 42.6354 14.724 42.3125 14.1094C41.9896 13.5365 41.5885 13.0781 41.1094 12.7344C40.6302 12.3906 40.0938 12.1719 39.5 12.0781C38.875 11.9844 38.1823 12.0365 37.4219 12.2344C36.6198 12.4531 35.8281 12.8177 35.0469 13.3281C34.2344 13.8698 33.474 14.5417 32.7656 15.3438C32.0677 16.1458 31.4531 17.0469 30.9219 18.0469C30.4219 19.0469 30.0521 20.0573 29.8125 21.0781C29.5729 22.0885 29.4844 23.0469 29.5469 23.9531C29.5885 24.8073 29.7656 25.5885 30.0781 26.2969C30.3698 26.9531 30.7396 27.4688 31.1875 27.8438C31.3646 28.0208 31.5521 28.1562 31.75 28.25ZM45.8906 30H43.0312V24.5781C41.3958 26.6406 39.4375 28.151 37.1562 29.1094C35.7292 29.7031 34.375 30 33.0938 30C32.3333 30 31.599 29.8958 30.8906 29.6875C28.9844 29.1042 27.7135 27.8802 27.0781 26.0156C26.8073 25.2448 26.6719 24.4323 26.6719 23.5781C26.6719 22.3906 26.9323 21.1302 27.4531 19.7969C28.349 17.5156 29.8125 15.5365 31.8438 13.8594C33.875 12.1719 36.0156 11.1771 38.2656 10.875C38.7031 10.8125 39.125 10.7812 39.5312 10.7812C41.1979 10.7812 42.6146 11.2656 43.7812 12.2344C45.1875 13.4323 45.8906 15.0885 45.8906 17.2031V30ZM50.7031 23.4219V30H47.8438V10.7344H50.7031V16.1562C52.0156 14.5 53.5729 13.1823 55.375 12.2031C57.1875 11.2135 58.974 10.7188 60.7344 10.7188C62.4635 10.7396 63.901 11.2448 65.0469 12.2344C66.1927 13.224 66.8646 14.5573 67.0625 16.2344C68.4479 14.4635 70.1042 13.0781 72.0312 12.0781C73.7604 11.1823 75.4427 10.7344 77.0781 10.7344C77.2552 10.7344 77.4375 10.7396 77.625 10.75C79.4375 10.8646 80.875 11.5208 81.9375 12.7188C83 13.9062 83.5312 15.4271 83.5312 17.2812V30H80.6719V17.2812C80.6719 16.9583 80.651 16.6198 80.6094 16.2656C80.5052 15.4427 80.2812 14.7083 79.9375 14.0625C79.6146 13.4792 79.2135 13.0156 78.7344 12.6719C78.2552 12.3281 77.7188 12.1094 77.125 12.0156C76.4583 11.9323 75.7604 11.9844 75.0312 12.1719C74.2188 12.3906 73.4219 12.7604 72.6406 13.2812C71.8281 13.8229 71.0677 14.4948 70.3594 15.2969C69.6302 16.1302 69.0156 17.0312 68.5156 18C68.0052 18.9896 67.6302 20.0052 67.3906 21.0469C67.2031 21.8281 67.1094 22.6198 67.1094 23.4219V30H64.25V17.2812C64.25 16.9583 64.2292 16.6198 64.1875 16.2656C64.0729 15.4115 63.849 14.6771 63.5156 14.0625C63.2031 13.4792 62.8073 13.0156 62.3281 12.6719C61.8385 12.3281 61.2969 12.1094 60.7031 12.0156C60.0469 11.9323 59.3542 11.9844 58.625 12.1719C57.8125 12.3906 57.0208 12.7604 56.25 13.2812C55.4271 13.8125 54.6562 14.4844 53.9375 15.2969C53.2396 16.099 52.625 17 52.0938 18C51.5938 18.9896 51.224 20.0052 50.9844 21.0469C50.7969 21.8802 50.7031 22.6719 50.7031 23.4219ZM89.4844 30H86.625V10.7188H89.4844V30ZM86.875 7.625C86.6979 7.44792 86.6094 7.22396 86.6094 6.95312C86.6094 6.86979 86.6198 6.78125 86.6406 6.6875C86.7031 6.30208 86.8958 5.94792 87.2188 5.625C87.5312 5.30208 87.8854 5.10938 88.2812 5.04688C88.3646 5.02604 88.4479 5.01562 88.5312 5.01562C88.8125 5.01562 89.0417 5.10417 89.2188 5.28125C89.3854 5.45833 89.4688 5.68229 89.4688 5.95312C89.4688 6.03646 89.4635 6.125 89.4531 6.21875C89.3802 6.60417 89.1875 6.95833 88.875 7.28125C88.5521 7.60417 88.1927 7.80208 87.7969 7.875C87.4115 7.9375 87.1042 7.85417 86.875 7.625ZM93.4844 30H90.625V5.01562H93.4844V21.2188C94.0677 20.9479 94.6406 20.6042 95.2031 20.1875C96.0156 19.5833 96.7604 18.8542 97.4375 18C98.1042 17.1458 98.6771 16.2083 99.1562 15.1875C99.5938 14.2292 99.9115 13.2188 100.109 12.1562C100.193 11.6667 100.24 11.1875 100.25 10.7188H103.109C102.974 13.1146 102.026 15.4219 100.266 17.6406C102.932 16.7552 105.219 16.8958 107.125 18.0625C108.969 19.2292 109.891 21.0469 109.891 23.5156V30H107.031V23.7188C107.042 23.3646 107.021 23 106.969 22.625C106.854 21.7812 106.63 21.0469 106.297 20.4219C105.984 19.849 105.589 19.3854 105.109 19.0312C104.63 18.6979 104.089 18.4844 103.484 18.3906C102.87 18.2969 102.172 18.3438 101.391 18.5312C100.578 18.7604 99.7865 19.1302 99.0156 19.6406C98.2135 20.1719 97.4531 20.849 96.7344 21.6719C96.0365 22.4635 95.4167 23.3646 94.875 24.375C94.3646 25.375 93.9948 26.3854 93.7656 27.4062C93.5573 28.3229 93.4635 29.1875 93.4844 30Z" fill="#222222"/>
</svg>
