<svg width="260" height="256" viewBox="0 0 260 256" fill="none" xmlns="http://www.w3.org/2000/svg">
<path d="M233.572 71.3083L233.543 71.2759L233.508 71.2491C233.021 70.874 232.325 70.1119 231.385 69.0005C230.905 68.4318 230.377 67.7916 229.793 67.0843C229.24 66.4137 228.638 65.6827 227.978 64.895C225.287 61.6802 221.75 57.6417 217.31 53.5435C208.432 45.3476 195.927 36.898 179.319 34.3064C165.579 32.1623 154.159 25.752 142.328 19.0341L141.865 18.7707C130.196 12.1436 118.106 5.27741 103.075 2.12581C87.8257 -1.07143 68.6725 0.81487 52.0182 6.79903C35.3792 12.7777 21.1083 22.8949 15.7873 36.2676C5.28135 62.6712 -5.54925 107.078 5.26927 150.166C6.16914 153.75 8.72078 158.908 12.0843 164.686C15.4564 170.48 19.673 176.944 23.9398 183.155C32.4705 195.575 41.2246 207.019 43.8694 210.114C50.8122 218.241 66.7438 233.153 87.9328 243.587C109.128 254.024 135.626 260 163.651 250.16C174.472 246.361 184.677 243.913 194.14 241.647L194.295 241.61C203.688 239.362 212.365 237.285 220.142 234.234C227.97 231.164 234.908 227.099 240.78 220.86C246.652 214.622 251.435 206.236 254.996 194.559C260.7 175.852 259.733 149.867 255.169 126.19C252.886 114.343 249.698 103.054 245.98 93.5171C242.267 83.9905 238.01 76.1752 233.572 71.3083Z" fill="#FBFEF8" stroke="black"/>
</svg>
