<svg width="286" height="240" viewBox="0 0 286 240" fill="none" xmlns="http://www.w3.org/2000/svg">
<path d="M151.847 1.42453L151.803 1.43297L151.763 1.44877C151.189 1.67018 150.176 1.8701 148.739 2.09611C148.003 2.21176 147.182 2.33071 146.275 2.46215C145.415 2.58676 144.477 2.72259 143.461 2.87746C139.316 3.5095 134.029 4.43669 128.222 6.10439C116.608 9.4395 102.895 15.7421 92.0603 28.593C83.0961 39.2248 71.6894 45.6593 59.807 52.2847L59.3412 52.5444C47.6202 59.0788 35.4764 65.849 24.981 77.0614C14.3335 88.4362 6.00488 105.787 2.47596 123.128C-1.04973 140.453 0.191119 157.903 8.85992 169.392C25.9759 192.076 58.3115 224.381 100.757 237.498C104.287 238.589 110.02 239.085 116.705 239.209C123.407 239.334 131.121 239.084 138.645 238.661C153.688 237.815 168.014 236.272 172.032 235.619C182.582 233.902 203.597 228.024 223.514 215.328C243.435 202.629 262.297 183.08 268.432 154.019C270.801 142.797 274.004 132.804 276.979 123.54L277.028 123.388C279.981 114.192 282.71 105.697 284.139 97.4668C285.577 89.1812 285.704 81.142 283.419 72.8843C281.134 64.6273 276.449 56.187 268.315 47.0823C255.286 32.4971 232.573 19.8366 209.966 11.4489C198.655 7.25203 187.351 4.11765 177.27 2.34555C167.199 0.575264 158.31 0.1572 151.847 1.42453Z" fill="#FBFEF8" stroke="black"/>
</svg>
