<svg width="250" height="271" viewBox="0 0 250 271" fill="none" xmlns="http://www.w3.org/2000/svg">
<path d="M107.389 0.584511C87.7757 -0.520624 72.8703 9.35847 62.17 21.3752C51.4794 33.3811 44.9421 47.5651 42.0341 55.2305C41.5473 56.3342 41.2678 57.5212 40.954 58.8536C40.9015 59.0766 40.848 59.3038 40.7925 59.5353C40.4001 61.1696 39.891 63.0891 38.8726 65.4992C36.8347 70.3224 32.7388 77.1534 23.3977 87.5514C13.9341 98.0858 8.00001 116.448 4.5501 135.962C1.09575 155.502 0.115324 176.297 0.627049 191.791C1.14137 207.363 7.52078 225.521 17.2876 240.278C27.0455 255.022 40.2614 266.483 54.5151 268.477C82.658 272.415 128.366 272.394 167.654 251.655C170.922 249.93 175.327 246.227 180.142 241.588C184.969 236.937 190.247 231.306 195.268 225.687C205.307 214.451 214.346 203.231 216.725 199.927C222.959 191.269 236.739 169.133 244.294 143.41C251.845 117.696 253.209 88.2721 234.413 65.1859C197.029 19.2702 156.031 3.32529 107.389 0.584511Z" fill="#FBFEF8" stroke="black"/>
</svg>
